<svg xmlns="http://www.w3.org/2000/svg" xmlns:xlink="http://www.w3.org/1999/xlink"
    zoomAndPan="magnify" preserveAspectRatio="xMidYMid meet" version="1.0"
    viewBox="272.37 104.37 377.93 367.5">
    <defs>
        <clipPath id="514d420470">
            <path d="M 0 0.140625 L 1024 0.140625 L 1024 575.859375 L 0 575.859375 Z M 0 0.140625 "
                clip-rule="nonzero"></path>
        </clipPath>
        <clipPath id="d2e31fb6c6">
            <path
                d="M 272.304688 104.398438 L 651 104.398438 L 651 471.898438 L 272.304688 471.898438 Z M 272.304688 104.398438 "
                clip-rule="nonzero"></path>
        </clipPath>
    </defs>
    <g clip-path="url(#d2e31fb6c6)">
        <path fill="#98302d"
            d="M 333.464844 471.339844 C 338.875 461.964844 343.894531 453.265625 348.902344 444.570312 C 363.179688 419.78125 359.105469 393.519531 337.273438 374.949219 C 324.34375 363.945312 322.730469 354.222656 332.078125 339.378906 C 336.867188 331.773438 343.191406 325.121094 349.449219 317.246094 C 349.449219 324.5 348.835938 330.308594 349.605469 335.933594 C 350.539062 342.691406 354.128906 348.296875 360.476562 351.558594 C 365.082031 353.929688 369.507812 353.496094 373.324219 349.8125 C 377.226562 346.046875 378.21875 341.578125 376.019531 336.5625 C 375.398438 335.152344 374.519531 333.847656 373.742188 332.507812 C 361.308594 311.046875 348.871094 289.597656 336.449219 268.128906 C 335.511719 266.507812 334.707031 264.8125 333.503906 262.507812 C 337.085938 262.507812 339.933594 262.507812 342.789062 262.507812 C 355.523438 262.492188 362.128906 254.929688 360.742188 241.980469 C 359.1875 227.515625 353.347656 221.046875 339.070312 217.953125 C 337.554688 217.628906 336.054688 217.242188 334.546875 216.90625 C 320.8125 213.816406 316.09375 206.457031 319.101562 192.8125 C 319.933594 189.03125 320.964844 185.28125 321.585938 181.46875 C 323.769531 168.050781 318.882812 157.378906 308.058594 149.621094 C 297.695312 142.195312 286.679688 142.816406 275.660156 148.410156 C 274.660156 148.917969 273.660156 149.433594 272.394531 150.074219 C 283.792969 124.238281 320.390625 113.984375 345.046875 129.367188 C 360.371094 138.929688 369.453125 153.199219 376.371094 169.429688 C 379.292969 176.285156 383.503906 182.652344 387.550781 188.960938 C 389.429688 191.886719 392.519531 193.546875 395.988281 190.828125 C 399.421875 188.128906 398.199219 185.183594 396.367188 182.097656 C 392.4375 175.476562 388.65625 168.769531 384.226562 161.070312 C 388.945312 161.070312 392.9375 161.835938 396.421875 160.84375 C 399.535156 159.957031 403.359375 157.628906 404.441406 154.957031 C 405.148438 153.21875 402.09375 148.789062 399.65625 147.21875 C 395.496094 144.535156 390.527344 143.082031 385.855469 141.226562 C 368.429688 134.308594 356.8125 122.875 349.25 104.398438 C 352.105469 106.914062 354.082031 108.703125 356.113281 110.4375 C 367.96875 120.554688 381.269531 125.632812 396.9375 121.601562 C 409.585938 118.34375 419.246094 123.328125 427.546875 132.253906 C 430.546875 135.480469 433.28125 138.953125 436.441406 142.671875 C 439.710938 134.292969 438.796875 125.03125 445.660156 116.433594 C 446.765625 121.917969 447.292969 125.820312 448.363281 129.5625 C 450.363281 136.574219 451.773438 143.96875 455.082031 150.339844 C 459.121094 158.117188 465.945312 160.3125 474.414062 157.78125 C 480.875 155.859375 487.214844 153.347656 493.335938 150.515625 C 520.089844 138.140625 546.398438 139.355469 571.910156 153.539062 C 601.636719 170.066406 626.777344 191.539062 640.949219 223.394531 C 670.484375 289.777344 625.992188 357.390625 563.5625 368.105469 C 550.664062 370.320312 537.339844 370.183594 524.195312 370.824219 C 519.015625 371.082031 515.644531 372.546875 512.8125 377.546875 C 495.714844 407.703125 478.132812 437.582031 460.742188 467.574219 C 459.378906 469.929688 458.324219 471.863281 454.769531 471.847656 C 415.207031 471.664062 375.640625 471.71875 336.085938 471.703125 C 335.539062 471.695312 334.980469 471.542969 333.464844 471.339844 Z M 351.433594 272.8125 C 352.765625 275.414062 353.546875 277.132812 354.484375 278.753906 C 370.523438 306.402344 386.488281 334.097656 402.730469 361.632812 C 405.117188 365.671875 405.125 368.652344 402.769531 372.644531 C 386.542969 400.1875 370.535156 427.859375 354.484375 455.503906 C 353.5 457.199219 352.710938 459.011719 351.515625 461.414062 C 383.867188 461.414062 415.085938 461.308594 446.296875 461.527344 C 450.792969 461.558594 453.234375 460.140625 455.429688 456.289062 C 469.453125 431.738281 483.625 407.28125 497.972656 382.910156 C 499.964844 379.523438 499.402344 377.492188 496.941406 374.894531 C 492.660156 370.386719 488.683594 365.589844 483.648438 359.847656 C 496.394531 359.847656 507.433594 360.089844 518.453125 359.785156 C 533.339844 359.375 548.453125 360.003906 563.050781 357.617188 C 614.234375 349.238281 649.328125 295.644531 637.640625 245.148438 C 627.558594 201.585938 590.433594 171.769531 545.148438 171.488281 C 499.386719 171.203125 453.621094 171.414062 407.851562 171.429688 C 406.367188 171.429688 404.882812 171.601562 402.699219 171.738281 C 403.777344 173.882812 404.535156 175.589844 405.464844 177.195312 C 420.125 202.503906 434.902344 227.734375 449.394531 253.144531 C 451.652344 257.097656 454.242188 258.21875 458.597656 258.1875 C 487.296875 257.984375 516 258.03125 544.695312 258.089844 C 547.164062 258.097656 550.300781 257.960938 551.921875 259.332031 C 553.960938 261.054688 556.09375 264.476562 555.710938 266.738281 C 555.316406 269.023438 552.097656 271.125 549.703125 272.648438 C 548.453125 273.441406 546.300781 272.835938 544.550781 272.835938 C 482.882812 272.828125 421.214844 272.820312 359.546875 272.8125 C 357.226562 272.8125 354.910156 272.8125 351.433594 272.8125 Z M 351.433594 272.8125 "
            fill-opacity="1" fill-rule="nonzero"></path>
    </g>
    <path fill="#98302d"
        d="M 310.914062 193.078125 C 310.109375 198.898438 308.851562 204.328125 308.71875 209.792969 C 308.527344 217.589844 312.777344 221.976562 320.449219 223.039062 C 323.132812 223.410156 325.820312 223.742188 328.519531 224.007812 C 339.09375 225.023438 346.183594 232.933594 346.0625 243.445312 C 346 248.710938 343.363281 251.648438 338.425781 252.929688 C 319.980469 257.710938 299.890625 243.230469 298.550781 223.976562 C 297.695312 211.582031 300.492188 200.570312 310.914062 193.078125 Z M 310.914062 193.078125 "
        fill-opacity="1" fill-rule="nonzero"></path>
    <path fill="#fff"
        d="M 433.871094 189.613281 C 436.289062 189.484375 437.953125 189.3125 439.621094 189.3125 C 473.738281 189.296875 507.855469 189.207031 541.976562 189.335938 C 564.15625 189.417969 584.117188 195.820312 599.796875 212.148438 C 620.632812 233.859375 627.234375 259.726562 618.015625 288.285156 C 608.808594 316.761719 588.175781 333.75 559.050781 340.183594 C 553.996094 341.296875 548.671875 341.53125 543.46875 341.554688 C 512.644531 341.675781 481.820312 341.617188 451 341.617188 C 448.910156 341.617188 446.824219 341.617188 443.386719 341.617188 C 445.355469 344.070312 446.53125 345.675781 447.847656 347.15625 C 456.886719 357.277344 465.875 367.429688 475.050781 377.425781 C 477.367188 379.949219 477.761719 381.84375 475.914062 384.964844 C 465.148438 403.128906 454.695312 421.464844 443.925781 439.628906 C 442.945312 441.273438 440.507812 443.039062 438.71875 443.0625 C 421.085938 443.3125 403.441406 443.203125 385.800781 443.175781 C 385.105469 443.175781 384.398438 442.871094 382.984375 442.546875 C 388.21875 433.484375 393.207031 424.8125 398.222656 416.152344 C 406.777344 401.40625 415.261719 386.625 423.972656 371.984375 C 425.957031 368.652344 426.230469 366.160156 424.113281 362.589844 C 411.472656 341.265625 399.148438 319.753906 386.726562 298.304688 C 385.574219 296.316406 384.488281 294.300781 382.867188 291.378906 C 385.921875 291.242188 388.292969 291.035156 390.65625 291.035156 C 442.804688 291.023438 494.949219 291.042969 547.097656 291.007812 C 561.632812 291 572.8125 281.503906 574.101562 268.238281 C 575.570312 253.082031 563.898438 240.269531 548.285156 240.207031 C 521.726562 240.101562 495.167969 240.078125 468.609375 240.277344 C 464.429688 240.308594 462.066406 239.183594 459.976562 235.402344 C 452.46875 221.855469 444.515625 208.550781 436.757812 195.136719 C 435.832031 193.523438 435.039062 191.84375 433.871094 189.613281 Z M 433.871094 189.613281 "
        fill-opacity="1" fill-rule="nonzero"></path>
</svg>